<svg xmlns="http://www.w3.org/2000/svg" viewBox="0 0 911.24 606.91"><defs><style>.cls-1{fill:#0691bc;}.cls-2{fill:#906;}.cls-3{fill:none;}.cls-4{fill:#ba0d7c;}.cls-5{fill:#ed008c;}.cls-6{fill:#0a809b;}.cls-7{fill:#00adee;}</style></defs><g id="Layer_2" data-name="Layer 2"><g id="opciones"><path d="M92.88,545.3H74.67L66.34,529l-19.9-39-19.9,39L18.21,545.3H0L8.33,529l38.11-74.8L84.55,529Z"/><path d="M163.37,479.48V479a8.38,8.38,0,0,0-8.32-8.33H118.11a8.38,8.38,0,0,0-8.33,8.33v.52a8.38,8.38,0,0,0,8.33,8.32h32.78a28.54,28.54,0,0,1,21.2,9.37c.39.39.65.78,1,1.17a28.75,28.75,0,0,1-22.24,47H122.4a28.76,28.76,0,0,1-28.75-28.75h16.26A12.49,12.49,0,0,0,122.4,529h28.49a12.49,12.49,0,1,0,0-25H118.11a24.31,24.31,0,0,1-17-6.89,22.47,22.47,0,0,1-3.13-3.91,24.16,24.16,0,0,1-4.29-13.91v-.52a24.54,24.54,0,0,1,24.46-24.59h36.94a24.65,24.65,0,0,1,24.58,24.59v.52Z"/><path d="M208.89,478.83v8.45h58.54v16.26H208.89v17.17a8.39,8.39,0,0,0,8.33,8.33h66.47V545.3H217.22a24.54,24.54,0,0,1-24.46-24.59V478.83a24.54,24.54,0,0,1,24.46-24.59h66.47V470.5H217.22A8.38,8.38,0,0,0,208.89,478.83Z"/><path d="M370.18,529.17l8.33,16.26H360.29L352,529.17l-8.72-17-.39-.79a16.11,16.11,0,0,0-13.78-7.8H312.81v41.89H296.55V454.37h57.5a24.35,24.35,0,0,1,17.3,7.16A24.92,24.92,0,0,1,378.51,479a24.67,24.67,0,0,1-14.31,22.37,21.83,21.83,0,0,1-7,1.95Zm-16.13-41.89a7.58,7.58,0,0,0,3.38-.78,8.27,8.27,0,0,0,4.95-7.54,8.63,8.63,0,0,0-2.47-6,8.24,8.24,0,0,0-5.86-2.34H312.81v16.78Z"/><path d="M407.89,499.77A29.32,29.32,0,0,0,437.16,529h29.27V511.61H437.16V495.35h45.53V545.3H437.16a45.53,45.53,0,0,1,0-91.06h45.53V470.5H437.16A29.32,29.32,0,0,0,407.89,499.77Z"/><path d="M569.18,529.17l8.33,16.26H559.3L551,529.17l-8.71-17-.39-.79a16.12,16.12,0,0,0-13.79-7.8H511.82v41.89H495.56V454.37h57.49a24.34,24.34,0,0,1,17.3,7.16,24.7,24.7,0,0,1-7.15,39.8,21.7,21.7,0,0,1-7,1.95Zm-16.13-41.89a7.6,7.6,0,0,0,3.39-.78,8.26,8.26,0,0,0,4.94-7.54,8.58,8.58,0,0,0-2.47-6,8.2,8.2,0,0,0-5.86-2.34H511.82v16.78Z"/><path d="M678.44,545.3H660.23L651.91,529,632,490l-19.9,39-8.32,16.26H585.56L593.89,529,632,454.24,670.12,529Z"/><path d="M777.42,454.24V470.5H711a8.38,8.38,0,0,0-8.32,8.33v8.45h58.53v16.26H702.5V545.3H686.37V478.83a24.54,24.54,0,0,1,24.45-24.59Z"/><path d="M790.29,545.3V454.24h16.26V545.3Z"/><path d="M834.51,499.77A29.32,29.32,0,0,0,863.78,529h45.53V545.3H863.78a45.53,45.53,0,0,1,0-91.06h45.53V470.5H863.78A29.32,29.32,0,0,0,834.51,499.77Z"/><path d="M8.53,570.19h6v36h-6Z"/><path d="M60.79,606.24l-4.24-26.11L44.8,605.67H43.3L31.5,580.13l-4.24,26.11H21.21l5.9-36H33L44,594.7,55.1,570.19H61l5.85,36Z"/><path d="M93.26,571.74A11.37,11.37,0,0,1,97.69,576a11.87,11.87,0,0,1,1.6,6.08,11.32,11.32,0,0,1-3.52,8.49A12.15,12.15,0,0,1,87,594H79.52v12.26h-6v-36H87A12.88,12.88,0,0,1,93.26,571.74Zm-3.93,16.17a6.24,6.24,0,0,0,2.09-1.29,5.57,5.57,0,0,0,1.37-2,6.48,6.48,0,0,0,.5-2.52,6.07,6.07,0,0,0-3.21-5.46,7,7,0,0,0-3.42-.82H79.52v12.56h7.14A7.41,7.41,0,0,0,89.33,587.91Z"/><path d="M118.23,592.9h-6.89v13.34h-6v-36h14.13a13.4,13.4,0,0,1,6.21,1.45,10.71,10.71,0,0,1,4.37,4.06,11.2,11.2,0,0,1,1.58,5.87,10.81,10.81,0,0,1-2,6.46,11.26,11.26,0,0,1-5.38,4.05l8.38,14.16H126Zm-6.89-5.56h7.82a8.38,8.38,0,0,0,2.66-.41,5.55,5.55,0,0,0,2-1.19,5.3,5.3,0,0,0,1.3-1.85,5.93,5.93,0,0,0,.47-2.37,5.35,5.35,0,0,0-1.79-4.14,6.7,6.7,0,0,0-4.68-1.62h-7.82Z"/><path d="M160.71,600.62v5.62H139.08v-36h21.06v5.57H145v9.37h13.76v5.45H145v10Z"/><path d="M197.5,570.19v36h-5l-18.79-25.75v25.75h-5.84v-36h5.38l18.42,25.34V570.19Z"/><path d="M230.4,575.7H219.74v30.54h-5.89V575.7H203.19v-5.51H230.4Z"/><path d="M254.31,598.41H238.16l-3.1,7.83h-6.31l14.59-36h5.59l14.95,36h-6.41Zm-14.08-5.3h12l-6.05-15.19Z"/><path d="M283.73,601.58a18.64,18.64,0,0,1,13.32-32,18.85,18.85,0,0,1,7.86,1.64,16.43,16.43,0,0,1,6.08,4.69,17.21,17.21,0,0,1,3.39,7.05h-6a11.11,11.11,0,0,0-4.29-5.63,12.25,12.25,0,0,0-7-2,12.07,12.07,0,0,0-9,3.66,13.85,13.85,0,0,0,0,18.56,13,13,0,0,0,16.2,1.44,11.25,11.25,0,0,0,4.24-6h6.06a17.24,17.24,0,0,1-6.16,10.12,17.66,17.66,0,0,1-11.33,3.78A18.12,18.12,0,0,1,283.73,601.58Z"/><path d="M323.9,601.58a19.16,19.16,0,0,1,0-26.73,20.2,20.2,0,0,1,27.32,0,17.94,17.94,0,0,1,5.44,13.37,18.9,18.9,0,0,1-2.46,9.55,17.48,17.48,0,0,1-6.83,6.71,19.88,19.88,0,0,1-9.81,2.43A18.73,18.73,0,0,1,323.9,601.58Zm23-4.07a13.52,13.52,0,1,0-9.31,3.73A12.67,12.67,0,0,0,346.9,597.51Z"/><path d="M393.19,570.19v36h-5l-18.79-25.75v25.75h-5.84v-36h5.38l18.42,25.34V570.19Z"/><path d="M444.26,570.19l-14.13,36h-5.54l-14.43-36h6.57l10.61,27.6,10.4-27.6Z"/><path d="M449.74,570.19h5.95v36h-5.95Z"/><path d="M469.07,605.36a11,11,0,0,1-4.79-4.15,11.52,11.52,0,0,1-1.7-6.3h6a5.48,5.48,0,0,0,2.14,4.56,8.68,8.68,0,0,0,5.46,1.67,8.53,8.53,0,0,0,5.07-1.47,4.51,4.51,0,0,0,2.07-3.83,4.3,4.3,0,0,0-.28-1.6,3,3,0,0,0-.93-1.24c-.43-.34-.85-.64-1.24-.9a7.41,7.41,0,0,0-1.76-.74c-.78-.25-1.41-.42-1.89-.55l-2.17-.54c-1.07-.24-1.89-.43-2.44-.59s-1.32-.39-2.3-.72a12.54,12.54,0,0,1-2.28-1q-.79-.46-1.89-1.26a6,6,0,0,1-1.62-1.7,9.72,9.72,0,0,1-1-2.19,9.27,9.27,0,0,1-.42-2.88,9.11,9.11,0,0,1,3.45-7.57q3.44-2.73,9.23-2.73t9.21,3a10.25,10.25,0,0,1,3.31,8.06h-5.89a4.8,4.8,0,0,0-1.9-4,7.62,7.62,0,0,0-4.83-1.47A8.6,8.6,0,0,0,471,576.4a3.79,3.79,0,0,0-1.89,3.37,3.22,3.22,0,0,0,.47,1.7,4.64,4.64,0,0,0,1.09,1.26,6.88,6.88,0,0,0,1.86.95c.83.31,1.53.54,2.09.7s1.41.37,2.52.64l1.94.47c.43.1,1.06.28,1.88.54s1.47.48,1.92.67,1,.45,1.71.79a7.14,7.14,0,0,1,1.6,1c.38.34.8.77,1.27,1.28a6.1,6.1,0,0,1,1.06,1.62,11.93,11.93,0,0,1,.62,2,10.42,10.42,0,0,1,.26,2.34,9.75,9.75,0,0,1-3.73,8.16,14.82,14.82,0,0,1-9.41,2.91A16.74,16.74,0,0,1,469.07,605.36Z"/><path d="M496.26,570.19h5.95v36h-5.95Z"/><path d="M514.52,601.58a19.16,19.16,0,0,1,0-26.73,20.2,20.2,0,0,1,27.32,0,19.14,19.14,0,0,1,0,26.73,20.17,20.17,0,0,1-27.32,0Zm20.37-2a12.16,12.16,0,0,0,4.65-4.68,13.32,13.32,0,0,0,1.68-6.64,13.17,13.17,0,1,0-13,13A13.32,13.32,0,0,0,534.89,599.54ZM529,559.07h6.11l-5.07,7.31H525.6Z"/><path d="M583.81,570.19v36h-5L560,580.49v25.75h-5.85v-36h5.38L578,595.53V570.19Z"/><path d="M627.69,600.62v5.62H606.06v-36h21.06v5.57H612v9.37h13.76v5.45H612v10Z"/><path d="M637.18,601.58a18.64,18.64,0,0,1,13.32-32,18.9,18.9,0,0,1,7.87,1.64,16.43,16.43,0,0,1,6.08,4.69,17.21,17.21,0,0,1,3.39,7.05h-6a11.18,11.18,0,0,0-4.3-5.63,12.22,12.22,0,0,0-7-2,12,12,0,0,0-9,3.66,13.85,13.85,0,0,0,0,18.56A13,13,0,0,0,657.7,599a11.3,11.3,0,0,0,4.24-6h6a17.23,17.23,0,0,1-6.15,10.12,17.71,17.71,0,0,1-11.34,3.78A18.15,18.15,0,0,1,637.18,601.58Z"/><path d="M677.36,601.58a19.16,19.16,0,0,1,0-26.73,20.2,20.2,0,0,1,27.32,0,18,18,0,0,1,5.43,13.37,19,19,0,0,1-2.45,9.55,17.48,17.48,0,0,1-6.83,6.71,19.88,19.88,0,0,1-9.81,2.43A18.71,18.71,0,0,1,677.36,601.58Zm23-4.07a13.52,13.52,0,1,0-9.31,3.73A12.67,12.67,0,0,0,700.36,597.51Z"/><path d="M738,600.73v5.51H717v-36h6v30.54Z"/><path d="M744.93,601.58a19.16,19.16,0,0,1,0-26.73,20.21,20.21,0,0,1,27.33,0,19.16,19.16,0,0,1,0,26.73,20.18,20.18,0,0,1-27.33,0Zm20.37-2a12.16,12.16,0,0,0,4.65-4.68,13.22,13.22,0,0,0,1.69-6.64,13.17,13.17,0,1,0-13,13A13.32,13.32,0,0,0,765.3,599.54Zm-5.88-40.47h6.11l-5.07,7.31H756Z"/><path d="M819.08,588a19.22,19.22,0,0,1-5.22,13.62,17.32,17.32,0,0,1-13,5.33,18,18,0,0,1-13.3-5.31,19.58,19.58,0,0,1,0-26.72,17.78,17.78,0,0,1,13.17-5.3,18.94,18.94,0,0,1,11.64,3.73,15.72,15.72,0,0,1,6.27,9.6h-6.16a10.36,10.36,0,0,0-4.32-5.53,13,13,0,0,0-7.27-2.09,12.84,12.84,0,0,0-6.47,1.62,11.44,11.44,0,0,0-4.45,4.59,13.85,13.85,0,0,0-1.61,6.72,12.94,12.94,0,0,0,3.47,9.36,12,12,0,0,0,9.06,3.61,13,13,0,0,0,7.55-2.24,10.19,10.19,0,0,0,4.25-5.9H799.73V588Z"/><path d="M825.86,570.19h5.95v36h-5.95Z"/><path d="M844,601.58a18.64,18.64,0,0,1,13.32-32,18.93,18.93,0,0,1,7.87,1.64,16.51,16.51,0,0,1,6.08,4.69,17.19,17.19,0,0,1,3.38,7.05h-6a11.11,11.11,0,0,0-4.29-5.63,12.22,12.22,0,0,0-7-2,12,12,0,0,0-9,3.66,13.85,13.85,0,0,0,0,18.56A12.94,12.94,0,0,0,864.51,599a11.32,11.32,0,0,0,4.25-6h6a17.2,17.2,0,0,1-6.16,10.12,17.66,17.66,0,0,1-11.33,3.78A18.12,18.12,0,0,1,844,601.58Z"/><path d="M901.67,598.41H885.52l-3.1,7.83H876.1l14.6-36h5.59l15,36h-6.42Zm-14.08-5.3h12l-6.06-15.19Z"/><polygon class="cls-1" points="100.39 358.07 219.9 358.07 314.86 161.76 222.75 104.51 100.39 358.07"/><path class="cls-2" d="M778.3,360.8h0s-45.23,9-63-42.13c-.77.8-1.5,1.61-2.29,2.4-2.35,1.93-4.77,3.78-7.22,5.58,21.07,46.61,72.52,34.15,72.52,34.15Z"/><path class="cls-3" d="M638.38,190.66c-11.09,2.13-20.94,6-28.07,14.84-5.31,6.61-8.09,14.29-9.51,22.76C621.61,225.05,634.78,213,638.38,190.66Z"/><path class="cls-3" d="M660.55,106q4.46,8.53,8.51,17.91h0Q665,114.51,660.55,106Z"/><path class="cls-3" d="M555,187.42c-.36,9.28,12.22,21.93,22.56,22.51C576.63,199.28,564.24,187,555,187.42Z"/><path class="cls-3" d="M660.55,106q-4.41-8.41-9.15-16.06Q656.14,97.56,660.55,106Z"/><path class="cls-3" d="M617.5,47q3.54,3.52,7,7.35Q621,50.54,617.5,47Z"/><path class="cls-3" d="M631.5,62.31q-3.45-4.12-7-8Q628.05,58.18,631.5,62.31Z"/><path class="cls-3" d="M651.4,89.91q-3.15-5.09-6.43-9.85Q648.25,84.83,651.4,89.91Z"/><path class="cls-2" d="M669.06,123.88q2.61,6,5,12.45-2.42-6.41-5-12.45Z"/><path class="cls-2" d="M527.21,188.19c0-44,34.31-75.58,76.55-74.08,40.32,1.44,57.32,23.25,82.56,53.41A88.83,88.83,0,0,0,676.49,143c-.78-2.24-1.58-4.46-2.4-6.63.82,2.17,1.62,4.39,2.4,6.63a89.29,89.29,0,1,0-91,133.26c0-2.76,0-5.51,0-8.27,0-2.36,0-4.73,0-7.09C550.91,252.83,527.21,225.63,527.21,188.19Z"/><path class="cls-4" d="M606,9.82c-1.41,0-2.82-.11-4.23-.11a176.45,176.45,0,0,0-29.37,2.5A224.24,224.24,0,0,1,617.5,47q3.54,3.52,7,7.35t7,8c4.6,5.5,9.11,11.4,13.47,17.75q3.28,4.77,6.43,9.85,4.74,7.65,9.15,16.06t8.51,17.91q2.61,6,5,12.45c.82,2.17,1.62,4.39,2.4,6.63a88.83,88.83,0,0,1,9.83,24.56h90.13A175.52,175.52,0,0,0,606,9.82Z"/><path class="cls-5" d="M599.7,263c0-5.77,0-11.54,0-17.31,0-2.1.73-2.64,2.7-3.11a127.36,127.36,0,0,0,16.6-4.71,49.19,49.19,0,0,0,27.21-25c5.47-11.17,7.69-23,7.55-35.41,0-1.83-1-2-2.44-2.05a75,75,0,0,0-32.07,6.14c-9.77,4.25-17.88,10.56-23.41,19.86-1.21,2-2.38,4.07-3.84,6.58-3-12.21-8.29-22.28-18.9-28.74-10.33-6.29-21.64-8.36-33.79-7.64a60.62,60.62,0,0,0,2.54,22.82c3.28,10.19,9,18.57,18.4,24.05a54.34,54.34,0,0,0,23.75,7c2.66.19,2.56.14,2.3,2.67-.36,3.54-.74,7.09-.78,10.64-.07,7.33,0,14.65,0,22q3.22.75,6.57,1.28A55.16,55.16,0,0,0,599.7,263Zm10.61-57.51c7.13-8.89,17-12.71,28.07-14.84-3.6,22.38-16.77,34.39-37.58,37.6C602.22,219.79,605,212.11,610.31,205.5ZM555,187.42c9.25-.42,21.64,11.86,22.56,22.51C567.21,209.35,554.63,196.7,555,187.42Z"/><path class="cls-5" d="M690.68,203.05h-3.26a89.31,89.31,0,0,1-87.7,74.25c0-4.77,0-9.53,0-14.29a55.16,55.16,0,0,1-7.66-.87q-3.35-.52-6.57-1.28c0,2.36,0,4.73,0,7.09,0,2.76,0,5.51,0,8.27a89.3,89.3,0,1,1,91-133.26c-.78-2.24-1.58-4.46-2.4-6.63q-2.42-6.41-5-12.45-4-9.37-8.51-17.91T651.4,89.91q-3.15-5.09-6.43-9.85c-4.36-6.35-8.87-12.25-13.47-17.75q-3.45-4.12-7-8t-7-7.35a224.24,224.24,0,0,0-45.07-34.8c-83,14-146.18,86.11-146.18,173,0,89.95,67.66,164.05,154.86,174.29,33-23.65,111.36-86.87,115.68-156.5Z"/><path class="cls-2" d="M778.3,203.05,769,196.68H680.72c-11.2,37.18-44.19,64.93-76,66.42,0,0-2.14,0-5-.09,0,4.76,0,9.52,0,14.29a89.31,89.31,0,0,0,87.7-74.25H778.3Z"/><polygon class="cls-6" points="219.9 358.07 243.06 348.4 302.35 231.97 288.57 216.11 219.9 358.07"/><path class="cls-1" d="M305.48,9.67,274.87,0,210.7,128.81s34.17-12.52,48.88,24.71c15.24,38.58,100,204.55,100,204.55h112Z"/><polygon class="cls-1" points="469.17 362.9 471.59 358.07 462.1 358.07 463.81 362.9 469.17 362.9"/><path class="cls-7" d="M469.17,362.9h-112s-84.72-166-100-204.55c-14.71-37.23-48.88-24.71-48.88-24.71L272.46,4.83"/><path class="cls-4" d="M744.15,203.05H696.79c-4.32,69.63-82.69,132.85-115.68,156.5a173.16,173.16,0,0,0,46.5-.65A174.7,174.7,0,0,0,713,321.08c.79-.79,1.52-1.6,2.29-2.4,17.78,51.13,63,42.13,63,42.13V203.05Z"/></g></g></svg>