<svg xmlns="http://www.w3.org/2000/svg" viewBox="0 0 162.64 98.19"><defs><style>.cls-1{fill:#1d789f;}.cls-2{fill:#22729f;}.cls-3{fill:#f9f9f9;}.cls-4{fill:#cd691a;}</style></defs><g id="Layer_2" data-name="Layer 2"><g id="Layer_1-2" data-name="Layer 1"><path class="cls-1" d="M128.14,56V11.07H25.74V41.16S16,32.61,13.93,28.89C.52,4.64,25.29,0,25.29,0A26.17,26.17,0,0,0,14.82,2.28C7.94,5.39,1.24,12.17.16,20.33c-1.15,8.58,4.32,15.56,7,19,19,24.2,64,26.61,71.42,27.39,13.44,1.41,44.49-.44,51.67-1.21-40.23.27-41.53.08-61.54-4.7-11.27-2.69-32.38-9.52-36.36-13.12C32.07,43.34,34.7,18.3,34.7,18.3l43.9.54,42.11-.92-.11,39.5Z"/><path class="cls-2" d="M24.77,64.23C24,63.61,68.3,79.8,113.87,75.54c10.77-1,32.09-4.05,38.83-17.2A20.54,20.54,0,0,0,155,46.2c-1.39-9.55-8-12.6-10.56-15.05-2.37-2.31,20.38,13.16,18,25.69-1.77,9.43-15.9,15.47-18.3,16.45a139.83,139.83,0,0,1-17.83,5.91l6.53,19-106.64,0L39.3,77.48l-.73,7.39,28.74-.27.8-4.54S39,76.35,24.77,64.23Z"/><rect class="cls-3" x="38.36" y="89.99" width="7.65" height="2.77"/><rect class="cls-3" x="48.54" y="89.99" width="4.59" height="2.77"/><rect class="cls-3" x="55.66" y="89.99" width="4.59" height="2.77"/><rect class="cls-3" x="62.56" y="89.99" width="4.59" height="2.77"/><rect class="cls-3" x="70.4" y="89.99" width="4.59" height="2.77"/><rect class="cls-3" x="78.06" y="89.99" width="4.59" height="2.77"/><rect class="cls-3" x="85.55" y="89.99" width="4.59" height="2.77"/><rect class="cls-3" x="93.43" y="89.99" width="4.59" height="2.77"/><rect class="cls-3" x="103.22" y="89.99" width="4.59" height="2.77"/><rect class="cls-3" x="110.71" y="89.99" width="4.59" height="2.77"/><rect class="cls-3" x="118.12" y="89.99" width="4.59" height="2.77"/><rect class="cls-3" x="115.96" y="83.73" width="4.59" height="2.77"/><rect class="cls-3" x="108.29" y="84.18" width="4.59" height="2.77"/><rect class="cls-3" x="101.41" y="84" width="4.59" height="2.77"/><rect class="cls-3" x="93.91" y="84.17" width="4.59" height="2.77"/><rect class="cls-3" x="86.75" y="84.17" width="4.59" height="2.77"/><rect class="cls-3" x="79.25" y="84.17" width="4.59" height="2.77"/><rect class="cls-3" x="71.98" y="84.17" width="4.59" height="2.77"/><path class="cls-4" d="M90.43,33.79a11.14,11.14,0,0,0-5.56-4,.18.18,0,0,0-.16,0,.18.18,0,0,0-.07.15v2.86a.21.21,0,0,0,.09.18c2.26,1.38,4.72,3.33,4.72,7.33a7.92,7.92,0,1,1-15.84,0c0-4.17,2.5-6,4.8-7.38a.22.22,0,0,0,.1-.18V30a.19.19,0,0,0-.07-.14.22.22,0,0,0-.16,0,11.17,11.17,0,0,0-5.62,4,11.09,11.09,0,1,0,17.75,0Z"/><path class="cls-4" d="M81.81,27.55h-.53a1.52,1.52,0,0,0-1.52,1.52V41.93a1.52,1.52,0,0,0,1.52,1.52h.53a1.52,1.52,0,0,0,1.52-1.52V29.07A1.52,1.52,0,0,0,81.81,27.55Z"/></g></g></svg>